<mxfile host="app.diagrams.net" modified="2021-05-12T08:23:37.182Z" agent="5.0 (Windows NT 10.0; Win64; x64) AppleWebKit/537.36 (KHTML, like Gecko) Chrome/90.0.4430.212 Safari/537.36" etag="m08H8QndWGVodXgrBUU8" version="14.6.12" type="github">
  <diagram id="C5RBs43oDa-KdzZeNtuy" name="Page-1">
    <mxGraphModel dx="782" dy="437" grid="1" gridSize="10" guides="1" tooltips="1" connect="1" arrows="1" fold="1" page="1" pageScale="1" pageWidth="827" pageHeight="1169" math="0" shadow="0">
      <root>
        <mxCell id="WIyWlLk6GJQsqaUBKTNV-0" />
        <mxCell id="WIyWlLk6GJQsqaUBKTNV-1" parent="WIyWlLk6GJQsqaUBKTNV-0" />
        <mxCell id="GJbdPpqmlYrkZpuZocA6-16" style="edgeStyle=orthogonalEdgeStyle;rounded=0;orthogonalLoop=1;jettySize=auto;html=1;exitX=0.5;exitY=1;exitDx=0;exitDy=0;entryX=0.5;entryY=0;entryDx=0;entryDy=0;" edge="1" parent="WIyWlLk6GJQsqaUBKTNV-1" source="WIyWlLk6GJQsqaUBKTNV-3" target="GJbdPpqmlYrkZpuZocA6-15">
          <mxGeometry relative="1" as="geometry" />
        </mxCell>
        <mxCell id="WIyWlLk6GJQsqaUBKTNV-3" value="&lt;font style=&quot;font-size: 16px&quot;&gt;Start&lt;/font&gt;" style="rounded=1;whiteSpace=wrap;html=1;fontSize=12;glass=0;strokeWidth=1;shadow=0;" parent="WIyWlLk6GJQsqaUBKTNV-1" vertex="1">
          <mxGeometry x="354" y="70" width="120" height="40" as="geometry" />
        </mxCell>
        <mxCell id="GJbdPpqmlYrkZpuZocA6-18" style="edgeStyle=orthogonalEdgeStyle;rounded=0;orthogonalLoop=1;jettySize=auto;html=1;exitX=0.5;exitY=1;exitDx=0;exitDy=0;entryX=0.5;entryY=0;entryDx=0;entryDy=0;" edge="1" parent="WIyWlLk6GJQsqaUBKTNV-1" source="GJbdPpqmlYrkZpuZocA6-15" target="GJbdPpqmlYrkZpuZocA6-17">
          <mxGeometry relative="1" as="geometry" />
        </mxCell>
        <mxCell id="GJbdPpqmlYrkZpuZocA6-15" value="Generate Random Word" style="rounded=1;whiteSpace=wrap;html=1;fontSize=12;glass=0;strokeWidth=1;shadow=0;" vertex="1" parent="WIyWlLk6GJQsqaUBKTNV-1">
          <mxGeometry x="354" y="160" width="120" height="40" as="geometry" />
        </mxCell>
        <mxCell id="GJbdPpqmlYrkZpuZocA6-20" style="edgeStyle=orthogonalEdgeStyle;rounded=0;orthogonalLoop=1;jettySize=auto;html=1;exitX=0.5;exitY=1;exitDx=0;exitDy=0;" edge="1" parent="WIyWlLk6GJQsqaUBKTNV-1" source="GJbdPpqmlYrkZpuZocA6-17" target="GJbdPpqmlYrkZpuZocA6-19">
          <mxGeometry relative="1" as="geometry" />
        </mxCell>
        <mxCell id="GJbdPpqmlYrkZpuZocA6-17" value="Generate as many blanks as letters in words" style="rounded=1;whiteSpace=wrap;html=1;fontSize=12;glass=0;strokeWidth=1;shadow=0;" vertex="1" parent="WIyWlLk6GJQsqaUBKTNV-1">
          <mxGeometry x="339" y="250" width="150" height="40" as="geometry" />
        </mxCell>
        <mxCell id="GJbdPpqmlYrkZpuZocA6-23" style="edgeStyle=orthogonalEdgeStyle;rounded=0;orthogonalLoop=1;jettySize=auto;html=1;exitX=0.5;exitY=1;exitDx=0;exitDy=0;entryX=0.5;entryY=0;entryDx=0;entryDy=0;" edge="1" parent="WIyWlLk6GJQsqaUBKTNV-1" source="GJbdPpqmlYrkZpuZocA6-19" target="GJbdPpqmlYrkZpuZocA6-21">
          <mxGeometry relative="1" as="geometry" />
        </mxCell>
        <mxCell id="GJbdPpqmlYrkZpuZocA6-19" value="Ask user to guess letter" style="rounded=1;whiteSpace=wrap;html=1;fontSize=12;glass=0;strokeWidth=1;shadow=0;" vertex="1" parent="WIyWlLk6GJQsqaUBKTNV-1">
          <mxGeometry x="339" y="340" width="150" height="40" as="geometry" />
        </mxCell>
        <mxCell id="GJbdPpqmlYrkZpuZocA6-24" value="Yes" style="edgeStyle=orthogonalEdgeStyle;rounded=0;orthogonalLoop=1;jettySize=auto;html=1;exitX=0;exitY=0.5;exitDx=0;exitDy=0;entryX=0.5;entryY=0;entryDx=0;entryDy=0;fontSize=12;" edge="1" parent="WIyWlLk6GJQsqaUBKTNV-1" source="GJbdPpqmlYrkZpuZocA6-21" target="GJbdPpqmlYrkZpuZocA6-26">
          <mxGeometry x="0.5105" y="-21" relative="1" as="geometry">
            <mxPoint x="280" y="560" as="targetPoint" />
            <mxPoint as="offset" />
          </mxGeometry>
        </mxCell>
        <mxCell id="GJbdPpqmlYrkZpuZocA6-25" value="No" style="edgeStyle=orthogonalEdgeStyle;rounded=0;orthogonalLoop=1;jettySize=auto;html=1;exitX=1;exitY=0.5;exitDx=0;exitDy=0;entryX=0.5;entryY=0;entryDx=0;entryDy=0;fontSize=12;" edge="1" parent="WIyWlLk6GJQsqaUBKTNV-1" source="GJbdPpqmlYrkZpuZocA6-21" target="GJbdPpqmlYrkZpuZocA6-27">
          <mxGeometry x="0.5425" y="23" relative="1" as="geometry">
            <mxPoint x="560" y="560" as="targetPoint" />
            <mxPoint as="offset" />
          </mxGeometry>
        </mxCell>
        <mxCell id="GJbdPpqmlYrkZpuZocA6-21" value="" style="rhombus;whiteSpace=wrap;html=1;align=center;" vertex="1" parent="WIyWlLk6GJQsqaUBKTNV-1">
          <mxGeometry x="329" y="420" width="170" height="100" as="geometry" />
        </mxCell>
        <mxCell id="GJbdPpqmlYrkZpuZocA6-22" value="Is the guessed letter in the word?" style="rounded=1;whiteSpace=wrap;html=1;fontSize=12;glass=0;strokeWidth=1;shadow=0;strokeColor=none;" vertex="1" parent="WIyWlLk6GJQsqaUBKTNV-1">
          <mxGeometry x="358.5" y="450" width="111" height="40" as="geometry" />
        </mxCell>
        <mxCell id="GJbdPpqmlYrkZpuZocA6-26" value="Replace blanks with the letter" style="rounded=1;whiteSpace=wrap;html=1;fontSize=12;glass=0;strokeWidth=1;shadow=0;" vertex="1" parent="WIyWlLk6GJQsqaUBKTNV-1">
          <mxGeometry x="223" y="565" width="116" height="40" as="geometry" />
        </mxCell>
        <mxCell id="GJbdPpqmlYrkZpuZocA6-38" style="edgeStyle=orthogonalEdgeStyle;rounded=0;orthogonalLoop=1;jettySize=auto;html=1;exitX=0.5;exitY=1;exitDx=0;exitDy=0;entryX=0.5;entryY=0;entryDx=0;entryDy=0;fontSize=12;" edge="1" parent="WIyWlLk6GJQsqaUBKTNV-1" source="GJbdPpqmlYrkZpuZocA6-27" target="GJbdPpqmlYrkZpuZocA6-37">
          <mxGeometry relative="1" as="geometry" />
        </mxCell>
        <mxCell id="GJbdPpqmlYrkZpuZocA6-27" value="Lose a life" style="rounded=1;whiteSpace=wrap;html=1;fontSize=12;glass=0;strokeWidth=1;shadow=0;" vertex="1" parent="WIyWlLk6GJQsqaUBKTNV-1">
          <mxGeometry x="499" y="565" width="116" height="40" as="geometry" />
        </mxCell>
        <mxCell id="GJbdPpqmlYrkZpuZocA6-35" value="No" style="edgeStyle=orthogonalEdgeStyle;rounded=0;orthogonalLoop=1;jettySize=auto;html=1;exitX=0;exitY=0.5;exitDx=0;exitDy=0;entryX=0;entryY=0.5;entryDx=0;entryDy=0;fontSize=12;" edge="1" parent="WIyWlLk6GJQsqaUBKTNV-1" source="GJbdPpqmlYrkZpuZocA6-32" target="GJbdPpqmlYrkZpuZocA6-19">
          <mxGeometry x="-0.9585" y="20" relative="1" as="geometry">
            <Array as="points">
              <mxPoint x="180" y="690" />
              <mxPoint x="180" y="360" />
            </Array>
            <mxPoint as="offset" />
          </mxGeometry>
        </mxCell>
        <mxCell id="GJbdPpqmlYrkZpuZocA6-42" value="Yes" style="edgeStyle=orthogonalEdgeStyle;rounded=0;orthogonalLoop=1;jettySize=auto;html=1;exitX=0.5;exitY=1;exitDx=0;exitDy=0;entryX=0.5;entryY=0;entryDx=0;entryDy=0;fontSize=12;" edge="1" parent="WIyWlLk6GJQsqaUBKTNV-1" source="GJbdPpqmlYrkZpuZocA6-32" target="GJbdPpqmlYrkZpuZocA6-40">
          <mxGeometry x="-0.7531" y="19" relative="1" as="geometry">
            <mxPoint as="offset" />
          </mxGeometry>
        </mxCell>
        <mxCell id="GJbdPpqmlYrkZpuZocA6-32" value="Are all the &lt;br&gt;blanks filled?" style="rhombus;whiteSpace=wrap;html=1;fillColor=#ffffff;" vertex="1" parent="WIyWlLk6GJQsqaUBKTNV-1">
          <mxGeometry x="221" y="650" width="120" height="80" as="geometry" />
        </mxCell>
        <mxCell id="GJbdPpqmlYrkZpuZocA6-33" value="" style="endArrow=classic;html=1;exitX=0.5;exitY=1;exitDx=0;exitDy=0;entryX=0.5;entryY=0;entryDx=0;entryDy=0;" edge="1" parent="WIyWlLk6GJQsqaUBKTNV-1" source="GJbdPpqmlYrkZpuZocA6-26" target="GJbdPpqmlYrkZpuZocA6-32">
          <mxGeometry width="50" height="50" relative="1" as="geometry">
            <mxPoint x="360" y="700" as="sourcePoint" />
            <mxPoint x="410" y="650" as="targetPoint" />
          </mxGeometry>
        </mxCell>
        <mxCell id="GJbdPpqmlYrkZpuZocA6-43" value="Yes" style="edgeStyle=orthogonalEdgeStyle;rounded=0;orthogonalLoop=1;jettySize=auto;html=1;exitX=0.5;exitY=1;exitDx=0;exitDy=0;fontSize=12;" edge="1" parent="WIyWlLk6GJQsqaUBKTNV-1" source="GJbdPpqmlYrkZpuZocA6-37" target="GJbdPpqmlYrkZpuZocA6-40">
          <mxGeometry x="-0.3518" y="-25" relative="1" as="geometry">
            <mxPoint as="offset" />
          </mxGeometry>
        </mxCell>
        <mxCell id="GJbdPpqmlYrkZpuZocA6-37" value="Have they run&lt;br&gt;out of lives?" style="rhombus;whiteSpace=wrap;html=1;fillColor=#ffffff;" vertex="1" parent="WIyWlLk6GJQsqaUBKTNV-1">
          <mxGeometry x="487" y="650" width="140" height="80" as="geometry" />
        </mxCell>
        <mxCell id="GJbdPpqmlYrkZpuZocA6-39" value="No" style="edgeStyle=orthogonalEdgeStyle;rounded=0;orthogonalLoop=1;jettySize=auto;html=1;exitX=1;exitY=0.5;exitDx=0;exitDy=0;entryX=1;entryY=0.5;entryDx=0;entryDy=0;fontSize=12;" edge="1" parent="WIyWlLk6GJQsqaUBKTNV-1" source="GJbdPpqmlYrkZpuZocA6-37" target="GJbdPpqmlYrkZpuZocA6-19">
          <mxGeometry x="-0.9199" y="-20" relative="1" as="geometry">
            <mxPoint x="231" y="700" as="sourcePoint" />
            <mxPoint x="349" y="370" as="targetPoint" />
            <Array as="points">
              <mxPoint x="670" y="690" />
              <mxPoint x="670" y="360" />
            </Array>
            <mxPoint as="offset" />
          </mxGeometry>
        </mxCell>
        <mxCell id="GJbdPpqmlYrkZpuZocA6-40" value="GAME OVER" style="rounded=1;whiteSpace=wrap;html=1;fontSize=12;fillColor=#ffffff;" vertex="1" parent="WIyWlLk6GJQsqaUBKTNV-1">
          <mxGeometry x="354" y="840" width="120" height="60" as="geometry" />
        </mxCell>
      </root>
    </mxGraphModel>
  </diagram>
</mxfile>
